<svg width="60" height="60" fill="none" xmlns="http://www.w3.org/2000/svg"><rect width="60" height="60" rx="6" fill="#F7F8FD"/><path d="M39.639 32.991c.402 0 .804.045 1.197.133a1.24 1.24 0 01.949 1.484 1.26 1.26 0 01-1.506.935c-1.743-.394-3.487.978-3.487 2.74 0 1.549 1.276 2.81 2.847 2.81 1.569 0 2.846-1.261 2.846-2.81 0-.159-.013-.316-.038-.467a1.244 1.244 0 011.032-1.43 1.257 1.257 0 011.447 1.022c.049.284.074.577.074.875 0 2.917-2.406 5.292-5.361 5.292-2.958 0-5.361-2.375-5.361-5.292 0-2.919 2.404-5.292 5.36-5.292zm-11.572 4.05a1.25 1.25 0 011.258 1.242 1.25 1.25 0 01-1.258 1.24h-10.31a1.25 1.25 0 01-1.257-1.24 1.25 1.25 0 011.257-1.241h10.31zM21.862 16.5c2.957 0 5.361 2.373 5.361 5.292 0 2.917-2.404 5.292-5.361 5.292S16.5 24.709 16.5 21.792c0-.298.025-.59.073-.875a1.255 1.255 0 011.447-1.021 1.244 1.244 0 011.033 1.43 2.85 2.85 0 00-.039.466c0 1.549 1.276 2.81 2.847 2.81 1.57 0 2.846-1.261 2.846-2.81 0-1.55-1.275-2.81-2.846-2.81-.215 0-.43.023-.634.07a1.254 1.254 0 01-1.51-.927 1.24 1.24 0 01.94-1.49 5.327 5.327 0 011.204-.135zm21.88 4.05A1.25 1.25 0 0145 21.791a1.25 1.25 0 01-1.258 1.241H33.434a1.25 1.25 0 01-1.257-1.24 1.25 1.25 0 011.257-1.242h10.308z" fill="#446DF6"/></svg>