<svg width="60" height="60" fill="none" xmlns="http://www.w3.org/2000/svg"><rect width="60" height="60" rx="6" fill="#F7F8FD"/><path d="M35.78 15c4.82 0 7.707 2.927 7.72 7.815v14.37c0 4.888-2.874 7.815-7.707 7.815H31.51a1.094 1.094 0 01-.966-1.093c0-.56.416-1.031.966-1.092h4.271c3.684 0 5.539-1.895 5.539-5.63v-14.37c0-3.736-1.855-5.63-5.539-5.63H24.207c-3.684 0-5.552 1.895-5.552 5.63v14.37c0 3.735 1.868 5.63 5.552 5.63.55.061.965.532.965 1.092s-.416 1.032-.965 1.093c-4.82 0-7.707-2.927-7.707-7.815v-14.37c0-4.901 2.887-7.815 7.707-7.815H35.78zm-.392 20.265c.592 0 1.071.486 1.071 1.086 0 .6-.48 1.086-1.07 1.086H24.572a1.079 1.079 0 01-1.072-1.086c0-.6.48-1.086 1.072-1.086h10.815zm0-6.358a1.08 1.08 0 011.038.509c.22.357.22.81 0 1.168a1.08 1.08 0 01-1.038.509H24.573A1.094 1.094 0 0123.607 30c0-.56.416-1.031.966-1.093h10.815zM28.7 22.563c.55.061.966.532.966 1.093 0 .56-.416 1.03-.966 1.092h-4.114a1.094 1.094 0 01-.966-1.092c0-.56.416-1.032.966-1.093H28.7z" fill="#446DF6"/></svg>